<?xml version="1.0" encoding="UTF-8" standalone="no"?>
<!-- Created with Inkscape (http://www.inkscape.org/) -->

<svg
   xmlns:dc="http://purl.org/dc/elements/1.1/"
   xmlns:cc="http://creativecommons.org/ns#"
   xmlns:rdf="http://www.w3.org/1999/02/22-rdf-syntax-ns#"
   xmlns:svg="http://www.w3.org/2000/svg"
   xmlns="http://www.w3.org/2000/svg"
   xmlns:xlink="http://www.w3.org/1999/xlink"
   xmlns:sodipodi="http://sodipodi.sourceforge.net/DTD/sodipodi-0.dtd"
   xmlns:inkscape="http://www.inkscape.org/namespaces/inkscape"
   width="85.723mm"
   height="40.198002mm"
   viewBox="0 0 85.723 40.198002"
   version="1.1"
   id="svg1589"
   inkscape:version="0.92.2 5c3e80d, 2017-08-06"
   sodipodi:docname="logo-langue.svg">
  <defs
     id="defs1583">
    <linearGradient
       inkscape:collect="always"
       xlink:href="#linearGradient1365"
       id="linearGradient5044"
       gradientUnits="userSpaceOnUse"
       gradientTransform="translate(-237.35961,641.20221)"
       x1="237.35962"
       y1="-374.78564"
       x2="313.46866"
       y2="-344.20224" />
    <linearGradient
       inkscape:collect="always"
       id="linearGradient1365">
      <stop
         style="stop-color:#01f3ff;stop-opacity:1"
         offset="0"
         id="stop1361" />
      <stop
         style="stop-color:#01ffa6;stop-opacity:1"
         offset="1"
         id="stop1363" />
    </linearGradient>
    <linearGradient
       inkscape:collect="always"
       xlink:href="#linearGradient1365"
       id="linearGradient4821"
       gradientUnits="userSpaceOnUse"
       gradientTransform="matrix(0.652047,0,0,0.652047,120.61969,15.880115)"
       x1="136.23489"
       y1="-346.91199"
       x2="178.56157"
       y2="-346.91199" />
  </defs>
  <sodipodi:namedview
     id="base"
     pagecolor="#ffffff"
     bordercolor="#666666"
     borderopacity="1.0"
     inkscape:pageopacity="0.0"
     inkscape:pageshadow="2"
     inkscape:zoom="15.839192"
     inkscape:cx="184.33778"
     inkscape:cy="72.420104"
     inkscape:document-units="mm"
     inkscape:current-layer="g1017"
     showgrid="false"
     inkscape:window-width="2560"
     inkscape:window-height="1385"
     inkscape:window-x="0"
     inkscape:window-y="27"
     inkscape:window-maximized="1" />
  <metadata
     id="metadata1586">
    <rdf:RDF>
      <cc:Work
         rdf:about="">
        <dc:format>image/svg+xml</dc:format>
        <dc:type
           rdf:resource="http://purl.org/dc/dcmitype/StillImage" />
        <dc:title />
      </cc:Work>
    </rdf:RDF>
  </metadata>
  <g
     inkscape:label="Layer 1"
     inkscape:groupmode="layer"
     id="layer1"
     transform="translate(5.1929998,-261.99502)">
    <rect
       style="color:#000000;clip-rule:nonzero;display:inline;overflow:visible;visibility:visible;opacity:1;isolation:auto;mix-blend-mode:normal;color-interpolation:sRGB;color-interpolation-filters:linearRGB;solid-color:#000000;solid-opacity:1;vector-effect:none;fill:#f9f9f9;fill-opacity:1;fill-rule:evenodd;stroke:#f9f9f9;stroke-width:0.25055468;stroke-linecap:butt;stroke-linejoin:miter;stroke-miterlimit:4;stroke-dasharray:none;stroke-dashoffset:0;stroke-opacity:0.49803922;color-rendering:auto;image-rendering:auto;shape-rendering:auto;text-rendering:auto;enable-background:accumulate"
       id="rect5448-3-3-0-2-0-2"
       width="75.47271"
       height="29.947111"
       x="0.31816146"
       y="266.73474"
       inkscape:export-xdpi="150"
       inkscape:export-ydpi="150"
       ry="14.973556" />
    <g
       transform="translate(-174.83479,494.03143)"
       id="g1017"
       inkscape:export-xdpi="150"
       inkscape:export-ydpi="150">
      <path
         sodipodi:nodetypes="cc"
         inkscape:connector-curvature="0"
         id="path1503-9-1-6-0-84"
         d="m 209.71372,-210.32281 h 27.07403"
         style="fill:none;fill-rule:evenodd;stroke:url(#linearGradient4821);stroke-width:0.51756233;stroke-linecap:round;stroke-linejoin:miter;stroke-miterlimit:4;stroke-dasharray:none;stroke-opacity:1" />
      <g
         aria-label="LANGUE"
         transform="matrix(0.17620813,0,0,0.17620813,202.49645,-221.36608)"
         style="font-style:normal;font-variant:normal;font-weight:normal;font-stretch:normal;font-size:32px;line-height:0em;font-family:'Varela Round';-inkscape-font-specification:'Varela Round';font-variant-ligatures:normal;font-variant-caps:normal;font-variant-numeric:normal;font-feature-settings:normal;text-align:start;letter-spacing:4.50461626px;word-spacing:0px;writing-mode:lr-tb;text-anchor:start;opacity:1;fill:#666460;fill-opacity:1;stroke:none;stroke-width:1px;stroke-linecap:butt;stroke-linejoin:miter;stroke-opacity:1"
         id="flowRoot4485-0-3-9-2-5-3-1-9-1-49-0-0-9">
        <path
           d="m 41.485234,61.166249 q -0.832,0 -1.44,-0.576 -0.576,-0.608 -0.576,-1.44 v -19.008 q 0,-0.608 0.416,-1.024 0.416,-0.448 1.024,-0.448 0.608,0 1.024,0.448 0.448,0.416 0.448,1.024 v 18.112 h 10.464 q 0.608,0 1.024,0.448 0.448,0.416 0.448,1.024 0,0.608 -0.448,1.024 -0.416,0.416 -1.024,0.416 z"
           style="letter-spacing:6.4566164px"
           id="path827" />
        <path
           d="m 64.29935,61.326249 q -0.64,0 -1.056,-0.416 -0.384,-0.416 -0.384,-1.024 0,-0.256 0.16,-0.64 l 8.16,-19.264 q 0.256,-0.576 0.704,-0.928 0.48,-0.384 1.152,-0.384 h 0.32 q 0.672,0 1.12,0.384 0.48,0.352 0.736,0.928 l 8.16,19.264 q 0.16,0.384 0.16,0.64 0,0.608 -0.416,1.024 -0.384,0.416 -1.024,0.416 -0.448,0 -0.832,-0.224 -0.352,-0.256 -0.544,-0.672 l -2.08,-4.992 h -10.88 l -2.08,4.992 q -0.192,0.416 -0.576,0.672 -0.352,0.224 -0.8,0.224 z m 4.576,-8.544 h 8.64 l -4.32,-10.4 z"
           style=""
           id="path829" />
        <path
           d="m 94.182966,61.326249 q -0.608,0 -1.024,-0.416 -0.416,-0.416 -0.416,-1.024 v -19.104 q 0,-0.864 0.608,-1.472 0.608,-0.64 1.472,-0.64 h 0.416 q 1.024,0 1.76,0.96 l 12.320004,17.792 v -17.28 q 0,-0.608 0.416,-1.024 0.416,-0.448 1.024,-0.448 0.608,0 1.024,0.448 0.448,0.416 0.448,1.024 v 19.104 q 0,0.864 -0.64,1.472 -0.608,0.608 -1.472,0.608 h -0.384 q -0.512,0 -0.96,-0.224 -0.448,-0.256 -0.736,-0.64 l -12.384004,-17.888 v 17.312 q 0,0.608 -0.448,1.024 -0.416,0.416 -1.024,0.416 z"
           style=""
           id="path831" />
        <path
           d="m 132.82309,61.486249 q -3.296,0 -5.856,-1.44 -2.56,-1.472 -3.968,-4.064 -1.408,-2.624 -1.408,-5.952 0,-3.392 1.472,-6.016 1.472,-2.624 4,-4.064 2.56,-1.44 5.664,-1.44 2.496,0 4.352,0.608 1.888,0.608 3.616,1.696 0.256,0.128 0.448,0.448 0.192,0.32 0.192,0.704 0,0.544 -0.384,0.928 -0.352,0.384 -0.96,0.384 -0.352,0 -0.672,-0.16 -1.504,-0.896 -3.008,-1.344 -1.504,-0.448 -3.264,-0.448 -2.432,0 -4.384,1.024 -1.952,1.024 -3.072,3.008 -1.088,1.952 -1.088,4.672 0,2.496 1.024,4.48 1.056,1.952 3.008,3.104 1.984,1.12 4.672,1.12 3.008,0 5.6,-1.408 v -5.792 h -5.28 q -0.544,0 -0.928,-0.384 -0.384,-0.384 -0.384,-0.928 0,-0.544 0.384,-0.928 0.384,-0.384 0.928,-0.384 h 6.304 q 0.64,0 1.088,0.448 0.448,0.448 0.448,1.088 v 7.264 q 0,0.672 -0.352,1.216 -0.32,0.512 -0.864,0.768 -3.584,1.792 -7.328,1.792 z"
           style=""
           id="path833" />
        <path
           d="m 160.7137,61.486249 q -2.272,0 -4.384,-0.96 -2.112,-0.96 -3.456,-2.912 -1.344,-1.984 -1.344,-4.832 v -12.64 q 0,-0.608 0.416,-1.024 0.416,-0.448 1.024,-0.448 0.608,0 1.024,0.448 0.448,0.416 0.448,1.024 v 12.736 q 0,1.92 0.864,3.264 0.896,1.344 2.336,2.016 1.44,0.672 3.072,0.672 1.632,0 3.072,-0.672 1.44,-0.672 2.304,-2.016 0.896,-1.344 0.896,-3.264 v -12.736 q 0,-0.608 0.416,-1.024 0.416,-0.448 1.024,-0.448 0.608,0 1.024,0.448 0.448,0.416 0.448,1.024 v 12.64 q 0,2.848 -1.344,4.832 -1.344,1.952 -3.456,2.912 -2.112,0.96 -4.384,0.96 z"
           style=""
           id="path835" />
        <path
           d="m 181.88432,61.166249 q -0.608,0 -1.024,-0.416 -0.416,-0.416 -0.416,-1.024 v -19.424 q 0,-0.608 0.416,-1.024 0.416,-0.448 1.024,-0.448 h 12.832 q 0.576,0 0.96,0.416 0.416,0.384 0.416,0.96 0,0.576 -0.416,0.96 -0.384,0.384 -0.96,0.384 h -11.36 v 7.072 h 10.208 q 0.576,0 0.96,0.416 0.416,0.384 0.416,0.96 0,0.576 -0.416,0.96 -0.384,0.384 -0.96,0.384 h -10.208 v 7.104 h 11.36 q 0.576,0 0.96,0.416 0.416,0.384 0.416,0.96 0,0.576 -0.416,0.96 -0.384,0.384 -0.96,0.384 z"
           style=""
           id="path837" />
      </g>
      <path
         d="m 198.5116,-212.19476 a 1.7275522,1.7275522 0 0 1 -0.86377,0.23145 1.7275522,1.7275522 0 0 1 -0.53379,-0.0845 m -0.31291,-1.91818 a 0.89028936,0.89028936 0 0 1 0.8467,-0.61512 0.89028936,0.89028936 0 0 1 0.88543,0.79735 m 3.61937,-0.50656 a 0.89028936,0.89028936 0 0 1 0.44515,-0.11928 0.89028936,0.89028936 0 0 1 0.89031,0.89029 0.89028936,0.89028936 0 0 1 -0.0435,0.27504 m -2.37377,7.30564 a 0.89028936,0.89028936 0 0 1 -0.8467,0.61512 0.89028936,0.89028936 0 0 1 -0.88542,-0.79722 m 0,-2e-5 -0.80542,-7.66313 m 2.53755,7.84518 2.3737,-7.30549 m -6.3305,1.19637 -0.84671,-0.27513 m 5.88536,-1.96737 -0.80878,0.46696 -2.82942,1.63355 m -2.24718,-0.13311 0.53387,-1.64303 m -2.77818,1.51479 a 1.7275522,1.7275522 0 0 1 0.86378,-0.23144 1.7275522,1.7275522 0 0 1 0.53378,0.0845 m 0.31293,1.91819 a 0.89028936,0.89028936 0 0 1 -0.84671,0.61511 0.89028936,0.89028936 0 0 1 -0.88543,-0.79736 m -3.61934,0.50658 a 0.89028936,0.89028936 0 0 1 -0.44515,0.11933 0.89028936,0.89028936 0 0 1 -0.89029,-0.89029 0.89028936,0.89028936 0 0 1 0.0435,-0.27504 m 2.37375,-7.30563 a 0.89028936,0.89028936 0 0 1 0.84669,-0.61512 0.89028936,0.89028936 0 0 1 0.88542,0.79722 m -2e-5,1e-5 0.80542,7.66313 m -2.53752,-7.84518 -2.37369,7.30548 m 6.33045,-1.19635 0.84672,0.2751 m -5.88532,1.96738 3.63815,-2.10051 m 2.24717,0.1331 -0.53384,1.64304"
         style="color:#000000;clip-rule:nonzero;display:inline;overflow:visible;visibility:visible;opacity:1;isolation:auto;mix-blend-mode:normal;color-interpolation:sRGB;color-interpolation-filters:linearRGB;solid-color:#000000;solid-opacity:1;vector-effect:none;fill:none;fill-opacity:1;fill-rule:evenodd;stroke:#666460;stroke-width:0.63632292;stroke-linecap:butt;stroke-linejoin:miter;stroke-miterlimit:4;stroke-dasharray:none;stroke-dashoffset:0;stroke-opacity:1;color-rendering:auto;image-rendering:auto;shape-rendering:auto;text-rendering:auto;enable-background:accumulate"
         id="path925-2-9-9-0-6-6-1-7-59-7"
         inkscape:connector-curvature="0" />
    </g>
    <rect
       style="color:#000000;clip-rule:nonzero;display:inline;overflow:visible;visibility:visible;opacity:1;isolation:auto;mix-blend-mode:normal;color-interpolation:sRGB;color-interpolation-filters:linearRGB;solid-color:#000000;solid-opacity:1;vector-effect:none;fill:none;fill-opacity:1;fill-rule:evenodd;stroke:url(#linearGradient5044);stroke-width:0.63632292;stroke-linecap:butt;stroke-linejoin:miter;stroke-miterlimit:4;stroke-dasharray:none;stroke-dashoffset:0;stroke-opacity:1;color-rendering:auto;image-rendering:auto;shape-rendering:auto;text-rendering:auto;enable-background:accumulate"
       id="rect5448-3-3-0-2-0-2-6"
       width="75.47271"
       height="29.947111"
       x="0.31816146"
       y="266.73474"
       inkscape:export-xdpi="150"
       inkscape:export-ydpi="150"
       ry="14.973556" />
  </g>
</svg>
